<?xml version="1.0" standalone="no"?>
<!DOCTYPE svg PUBLIC "-//W3C//DTD SVG 20010904//EN"
 "http://www.w3.org/TR/2001/REC-SVG-20010904/DTD/svg10.dtd">
<svg version="1.0" xmlns="http://www.w3.org/2000/svg"
 width="1024.000000pt" height="1024.000000pt" viewBox="0 0 1024.000000 1024.000000"
 preserveAspectRatio="xMidYMid meet">

<g transform="translate(0.000000,1024.000000) scale(0.100000,-0.100000)"
fill="#000000" stroke="none">
<path d="M4870 8379 c-272 -19 -609 -91 -865 -184 -673 -244 -1244 -695 -1642
-1297 -248 -375 -404 -765 -487 -1218 -35 -194 -49 -349 -48 -560 1 -746 250
-1444 728 -2045 118 -148 361 -389 514 -511 246 -195 489 -341 765 -459 865
-369 1824 -348 2670 59 579 278 1076 731 1408 1281 215 357 365 763 431 1165
52 317 49 731 -9 1059 -115 663 -443 1283 -934 1769 -673 667 -1591 1008
-2531 941z m451 -350 c592 -47 1138 -266 1609 -644 122 -98 348 -323 441 -440
356 -443 560 -917 641 -1490 18 -122 17 -580 0 -705 -158 -1128 -965 -2081
-2057 -2430 -244 -78 -484 -118 -755 -127 -485 -15 -929 83 -1370 303 -791
396 -1368 1112 -1574 1956 -62 252 -71 339 -71 663 0 234 4 313 19 410 112
723 481 1369 1049 1840 588 487 1324 723 2068 664z"/>
<path d="M4894 7850 c-226 -20 -515 -83 -710 -155 -131 -48 -376 -167 -494
-240 -326 -202 -668 -538 -853 -839 -20 -33 -34 -63 -31 -68 13 -20 33 -1 84
80 182 288 504 601 820 797 146 90 380 199 545 254 265 88 487 129 750 138
857 30 1703 -370 2214 -1047 48 -64 103 -142 122 -173 32 -54 51 -68 63 -48 9
15 -146 240 -246 356 -240 279 -503 484 -843 655 -295 148 -551 228 -885 274
-137 20 -410 28 -536 16z"/>
<path d="M5015 7633 c-22 -1 -82 -5 -132 -9 -85 -5 -93 -8 -93 -26 0 -17 5
-19 28 -14 57 13 390 18 487 7 76 -8 101 -7 107 2 4 6 4 15 0 19 -7 6 -309 30
-342 26 -8 -1 -33 -3 -55 -5z"/>
<path d="M3989 7345 c-146 -74 -233 -129 -237 -148 -5 -26 11 -21 85 24 38 23
120 68 184 99 65 32 113 62 111 68 -7 21 -35 12 -143 -43z"/>
<path d="M6080 7386 c0 -9 50 -40 120 -75 66 -34 145 -77 176 -96 53 -34 74
-37 74 -12 0 20 -323 197 -360 197 -6 0 -10 -7 -10 -14z"/>
<path d="M4710 7369 c-200 -26 -413 -89 -562 -166 -246 -126 -468 -352 -588
-597 -95 -194 -130 -369 -130 -656 0 -356 55 -580 215 -875 250 -462 304 -629
292 -900 -9 -194 -61 -369 -212 -717 l-73 -166 77 -21 c169 -45 1288 -344
1463 -391 104 -27 190 -50 192 -50 9 0 16 60 52 404 19 192 41 365 47 384 7
22 24 43 44 54 29 18 43 18 230 7 110 -6 265 -9 344 -7 130 3 149 5 193 28 28
14 63 42 80 63 38 47 45 123 22 225 -9 39 -16 84 -16 99 0 43 44 103 111 152
34 25 59 51 59 61 0 10 -12 33 -27 51 -20 23 -24 34 -15 37 7 2 25 15 40 27
26 22 27 27 25 105 -2 45 2 90 8 102 13 24 67 48 109 48 66 0 150 58 150 104
0 12 -25 64 -55 116 -81 139 -169 315 -199 398 -44 123 -33 194 46 292 85 104
92 139 57 293 -14 61 -24 154 -29 277 -5 102 -14 210 -19 240 -51 259 -227
522 -471 706 -104 79 -294 175 -412 208 -95 27 -243 50 -433 66 -140 12 -521
11 -615 -1z m378 -281 c17 -17 15 -73 -2 -87 -24 -20 -69 -9 -85 20 -13 24
-13 29 2 53 19 28 63 36 85 14z m-340 -56 c17 -22 15 -39 -8 -72 -19 -27 -20
-42 -18 -207 l3 -178 323 -3 322 -2 0 164 c0 139 -2 165 -16 170 -26 10 -14
68 17 85 24 13 29 13 53 -2 33 -22 36 -71 6 -89 -19 -12 -20 -24 -20 -178 0
-116 -4 -170 -12 -178 -9 -9 -100 -12 -349 -12 -338 0 -338 0 -353 22 -13 18
-16 56 -16 206 0 169 -2 186 -20 209 -26 33 -25 39 5 69 27 27 59 26 83 -4z
m-469 -68 c30 -33 33 -40 29 -85 -15 -153 -221 -154 -236 -1 -4 42 0 52 24 81
35 42 59 52 109 46 30 -3 48 -13 74 -41z m1606 -49 l0 -70 -70 0 -70 0 -1 55
c-2 91 -1 91 75 88 l66 -3 0 -70z m-1348 -329 c7 -13 12 -62 13 -123 0 -96 -1
-103 -20 -103 -19 0 -20 7 -20 102 l0 103 -110 107 c-102 99 -121 124 -103
141 7 7 221 -195 240 -227z m1521 177 l3 -53 -85 0 -86 0 0 48 c0 27 3 52 7
56 4 4 41 5 83 4 l75 -3 3 -52z m-1725 -193 c32 -37 41 -78 32 -145 -11 -94
-9 -95 163 -95 102 0 152 -4 160 -12 9 -9 12 -175 12 -686 l0 -674 25 -30 c50
-59 -10 -127 -73 -82 -26 18 -30 65 -7 84 13 11 15 55 15 281 l0 269 -85 0
-85 0 0 -29 c0 -29 -21 -57 -33 -44 -14 13 -7 82 9 98 14 13 34 16 105 13 l89
-3 0 388 0 387 -145 0 c-143 0 -146 0 -172 26 -24 24 -25 29 -18 97 6 73 -4
124 -28 139 -7 4 -29 8 -49 8 -31 0 -38 4 -38 20 0 17 7 20 49 20 42 0 53 -4
74 -30z m-353 -120 l0 -81 -92 3 -93 3 0 70 c0 39 1 73 3 78 2 4 43 7 93 7
l89 0 0 -80z m2248 54 c103 -72 42 -237 -81 -221 -109 15 -142 162 -49 219 34
22 101 23 130 2z m-1330 -142 c2 -22 -2 -34 -12 -38 -14 -5 -16 -29 -16 -154
0 -171 -4 -180 -76 -180 -37 0 -44 3 -44 20 0 17 7 20 40 20 l40 0 0 137 c0
80 -5 150 -12 169 -15 43 2 66 46 62 27 -3 31 -7 34 -36z m773 15 c98 -66 52
-217 -66 -217 -80 0 -140 80 -115 154 26 80 112 110 181 63z m507 -239 c2 -96
0 -119 -13 -132 -14 -14 -59 -16 -366 -16 l-349 0 0 -84 c0 -109 -8 -116 -131
-116 -70 0 -88 -3 -93 -16 -3 -9 -6 -59 -6 -112 l0 -97 327 2 c181 2 338 5
349 8 16 3 25 17 33 50 13 51 46 75 104 75 21 0 41 7 52 20 22 24 52 26 77 3
22 -20 23 -42 2 -71 -18 -26 -46 -28 -84 -6 -19 12 -38 15 -64 10 -33 -6 -37
-11 -47 -52 -19 -75 -13 -74 -372 -74 l-319 0 -29 -29 -29 -29 0 -850 c0 -836
0 -850 -20 -875 -30 -38 -80 -52 -123 -33 -62 25 -67 48 -67 286 l0 210 -93 0
c-59 0 -97 4 -105 12 -11 11 -18 178 -8 178 29 0 36 -16 36 -86 l0 -74 93 0
c59 0 97 -4 105 -12 9 -9 12 -73 12 -225 0 -214 0 -214 25 -238 13 -14 29 -25
35 -25 16 0 53 21 62 34 4 6 8 461 8 1011 0 889 2 1003 16 1023 14 20 24 22
99 22 118 0 115 -2 115 90 0 117 -27 109 383 110 l347 1 0 108 c0 59 3 111 7
115 20 20 28 -9 31 -116z m-1638 -21 c0 -68 3 -158 6 -200 l7 -76 46 -3 c34
-2 47 -7 49 -20 3 -16 -5 -18 -55 -18 -33 0 -64 5 -71 12 -9 9 -12 72 -12 220
0 178 2 208 15 208 13 0 15 -20 15 -123z m954 83 c5 -5 6 -13 2 -17 -4 -5
-101 -9 -214 -10 -114 -1 -213 -2 -219 -2 -10 -1 -13 -155 -13 -736 0 -722 0
-735 -20 -755 -16 -16 -33 -20 -80 -20 -57 0 -60 1 -60 25 0 22 4 24 58 27
l57 3 5 740 c3 407 6 741 8 743 17 20 456 22 476 2z m-1240 -95 c9 -10 34 -15
70 -15 53 0 56 -1 56 -25 0 -24 -3 -25 -59 -25 -33 0 -63 -4 -66 -10 -9 -14
-58 -13 -73 2 -17 17 -15 48 5 70 20 22 46 23 67 3z m-524 -150 c10 -12 10
-21 0 -44 -6 -16 -10 -44 -8 -62 l3 -34 251 0 c282 0 294 -3 313 -71 25 -92
-73 -174 -156 -130 -40 20 -67 77 -58 122 l6 34 -181 0 c-167 0 -181 1 -200
20 -14 14 -20 33 -20 65 0 25 -4 45 -9 45 -16 0 -23 40 -11 55 16 19 54 19 70
0z m2058 -67 c30 -30 1 -98 -41 -98 -45 0 -70 48 -47 91 12 22 68 27 88 7z
m-942 -376 c25 -17 34 -56 34 -154 0 -64 4 -108 11 -115 16 -16 3 -60 -20 -68
-38 -12 -70 24 -50 56 5 8 9 67 9 131 l0 117 -47 3 c-36 2 -49 7 -51 21 -3 14
4 17 50 17 29 0 58 -4 64 -8z m1482 -8 c43 -30 16 -104 -39 -104 -50 0 -65 84
-19 107 32 16 31 16 58 -3z m-1878 -184 l0 -80 -75 0 -75 0 0 80 0 80 75 0 75
0 0 -80z m-445 -65 c3 -26 3 -59 0 -75 -6 -29 -8 -30 -71 -30 l-64 0 0 75 0
75 64 0 64 0 7 -45z m1552 -31 c15 -24 15 -29 2 -53 -11 -20 -22 -26 -49 -26
-27 0 -38 6 -49 26 -13 24 -13 29 2 53 12 18 26 26 47 26 21 0 35 -8 47 -26z
m563 -29 l0 -55 -55 0 -55 0 0 55 0 55 55 0 55 0 0 -55z m-40 -250 c100 -51
63 -215 -48 -215 -45 0 -89 24 -107 60 -53 103 52 208 155 155z m-1682 -21
c28 -19 29 -57 2 -84 -24 -24 -38 -25 -68 -4 -26 18 -29 60 -5 86 20 22 42 23
71 2z m1220 -81 l3 -53 -90 0 -91 0 0 48 c0 27 3 52 7 56 4 4 43 5 88 4 l80
-3 3 -52z m-1478 -103 c11 -11 20 -29 20 -40 0 -11 -9 -29 -20 -40 -11 -11
-29 -20 -40 -20 -25 0 -60 34 -60 58 0 52 64 78 100 42z m670 -220 l0 -90 -75
0 -75 0 0 68 c0 37 -3 77 -6 90 -6 21 -4 22 75 22 l81 0 0 -90z m-542 -6 c28
-19 29 -57 2 -84 -24 -24 -38 -25 -68 -4 -26 18 -29 60 -5 86 20 22 42 23 71
2z m1710 -60 c26 -18 29 -60 5 -86 -32 -36 -93 -8 -93 42 0 28 30 60 55 60 6
0 21 -7 33 -16z m-353 -74 c4 -6 4 -39 0 -73 l-7 -62 -89 3 -89 3 0 63 c0 34
3 66 7 69 11 11 171 8 178 -3z m-1307 -186 c42 -29 20 -104 -30 -104 -64 0
-78 92 -18 113 23 8 24 8 48 -9z m1464 -141 c36 -32 13 -95 -35 -95 -36 0 -57
19 -57 53 0 52 53 77 92 42z m-1012 -150 c0 -32 3 -68 6 -80 6 -23 5 -23 -90
-23 l-96 0 0 80 0 80 90 0 90 0 0 -57z m-423 -109 c15 -24 15 -29 2 -53 -27
-48 -109 -32 -109 22 0 56 76 77 107 31z m313 -174 c11 -11 20 -29 20 -39 0
-26 -45 -60 -70 -54 -22 6 -50 40 -50 60 0 20 38 53 60 53 11 0 29 -9 40 -20z"/>
<path d="M4139 6941 c-17 -13 -23 -29 -23 -56 0 -45 31 -75 76 -75 36 0 78 40
78 75 0 61 -82 96 -131 56z"/>
<path d="M6106 6448 c-9 -12 -16 -34 -16 -48 0 -44 26 -70 70 -70 30 0 43 6
59 26 12 15 21 34 21 44 0 10 -9 29 -21 44 -27 35 -90 37 -113 4z"/>
<path d="M5574 6345 c-51 -21 -60 -80 -19 -120 30 -30 64 -32 99 -4 68 53 0
158 -80 124z"/>
<path d="M4160 5768 c-30 -11 -40 -25 -40 -60 0 -52 72 -76 110 -38 48 48 -4
123 -70 98z"/>
<path d="M5977 4892 c-21 -23 -22 -76 -1 -96 8 -9 31 -16 49 -16 18 0 41 7 49
16 22 21 20 77 -2 97 -25 22 -75 21 -95 -1z"/>
<path d="M3176 6648 c-42 -51 -76 -96 -76 -99 0 -4 6 -9 14 -12 17 -7 171 177
161 193 -12 19 -24 9 -99 -82z"/>
<path d="M6935 6730 c-3 -5 29 -52 72 -103 42 -50 79 -94 80 -96 2 -3 10 2 18
10 12 12 3 26 -62 104 -74 89 -95 106 -108 85z"/>
<path d="M2726 6355 c-4 -11 -22 -15 -76 -15 l-70 0 0 -60 c0 -42 -5 -63 -16
-72 -55 -45 -54 -44 -54 -143 0 -92 1 -95 28 -112 15 -9 29 -19 32 -21 3 -2 7
-31 10 -65 l5 -62 69 -3 c51 -2 73 -8 83 -20 8 -9 16 -12 19 -7 17 38 24 40
45 15 12 -14 105 -118 207 -232 157 -174 189 -205 201 -193 11 11 -21 50 -198
246 l-211 234 0 111 c0 98 2 113 20 129 11 10 21 16 23 14 39 -53 413 -459
420 -456 6 2 12 8 14 13 4 13 -413 478 -433 482 -8 2 -21 -2 -29 -8 -13 -11
-15 1 -15 84 0 84 -3 101 -22 126 -24 33 -43 38 -52 15z m-26 -115 c0 -25 -4
-30 -25 -30 -21 0 -25 5 -25 30 0 25 4 30 25 30 21 0 25 -5 25 -30z m-25 -173
l-1 -52 -54 0 -55 0 -3 53 -3 52 58 0 58 0 0 -53z m25 -162 c0 -20 -5 -25 -25
-25 -20 0 -25 5 -25 25 0 20 5 25 25 25 20 0 25 -5 25 -25z"/>
<path d="M7460 6357 c0 -7 -9 -18 -20 -25 -18 -11 -20 -23 -20 -102 0 -85 -1
-90 -19 -79 -16 10 -23 7 -53 -27 -240 -270 -384 -432 -395 -445 -11 -14 -11
-18 0 -27 11 -10 51 29 198 194 101 114 196 221 210 238 23 26 29 29 43 17 13
-11 16 -35 16 -133 l0 -120 -167 -186 c-264 -292 -245 -268 -229 -281 11 -10
49 27 196 191 244 271 219 247 234 226 14 -19 36 -24 36 -8 0 5 33 10 73 12
69 3 72 4 75 28 10 98 13 105 42 122 30 17 30 17 30 110 0 101 -2 105 -42 131
-24 15 -27 24 -30 79 l-3 63 -70 3 c-48 2 -72 8 -78 18 -10 17 -27 19 -27 1z
m110 -117 c0 -25 -4 -30 -25 -30 -21 0 -25 5 -25 30 0 25 4 30 25 30 21 0 25
-5 25 -30z m88 -172 l-3 -53 -52 -3 -53 -3 0 55 0 56 56 0 55 0 -3 -52z m-88
-168 c0 -25 -4 -30 -25 -30 -21 0 -25 5 -25 30 0 25 4 30 25 30 21 0 25 -5 25
-30z"/>
<path d="M2697 5617 c-7 -18 143 -186 163 -184 8 1 15 7 15 14 0 13 -153 183
-165 183 -4 0 -10 -6 -13 -13z"/>
<path d="M7426 5546 c-42 -46 -76 -88 -76 -94 0 -19 30 -21 43 -2 7 10 43 50
80 90 63 66 74 90 43 90 -8 0 -48 -38 -90 -84z"/>
<path d="M2377 5229 c-3 -78 -3 -202 0 -276 5 -111 9 -133 21 -131 12 3 15 44
16 275 1 244 -1 273 -15 273 -14 0 -17 -21 -22 -141z"/>
<path d="M7808 5100 c-3 -245 -1 -270 13 -270 14 0 18 21 24 150 9 190 -1 390
-21 390 -11 0 -14 -51 -16 -270z"/>
<path d="M2801 5320 c-47 -10 -77 -31 -87 -62 -3 -10 -16 -23 -29 -28 -13 -5
-32 -21 -41 -35 -15 -23 -16 -32 -5 -61 9 -24 9 -39 2 -53 -6 -11 -11 -35 -11
-55 0 -27 6 -39 30 -56 21 -15 30 -30 30 -50 0 -33 42 -72 74 -69 12 2 37 -7
56 -19 43 -27 47 -27 85 -2 17 11 43 20 58 20 44 0 65 17 77 60 6 24 22 47 39
59 37 27 46 62 26 102 -13 25 -14 36 -4 64 11 28 10 37 -4 59 -10 14 -30 32
-46 41 -16 8 -32 24 -36 35 -14 43 -123 69 -214 50z m119 -170 c29 -16 44 -73
28 -107 -26 -55 -110 -67 -143 -20 -22 31 -19 93 5 117 22 22 78 27 110 10z"/>
<path d="M7276 5316 c-27 -8 -54 -22 -59 -32 -10 -17 -26 -33 -78 -78 -16 -13
-19 -29 -19 -74 1 -31 -1 -73 -5 -93 -6 -32 -3 -39 24 -62 17 -14 31 -33 31
-41 0 -31 24 -65 53 -75 16 -6 33 -9 37 -6 4 2 22 -7 40 -20 41 -30 59 -31 93
-5 14 11 40 20 59 20 39 0 78 33 78 67 0 11 16 37 36 57 32 32 35 41 29 69 -4
18 -7 57 -6 89 1 51 -2 59 -30 82 -17 14 -35 26 -40 26 -5 0 -9 6 -9 13 0 22
-42 54 -85 66 -51 14 -88 13 -149 -3z m131 -178 c47 -44 23 -128 -41 -144 -54
-13 -115 48 -102 102 16 63 96 86 143 42z"/>
<path d="M3286 5159 c-30 -23 -33 -45 -10 -77 30 -44 104 -16 104 39 0 16 -44
59 -60 59 -4 0 -19 -9 -34 -21z"/>
<path d="M6893 5170 c-46 -18 -37 -93 11 -106 33 -8 64 11 72 43 6 21 1 31
-20 50 -30 25 -31 26 -63 13z"/>
<path d="M6991 4811 c-9 -6 -10 -14 -5 -24 5 -8 99 -119 209 -247 110 -128
206 -241 214 -251 10 -14 11 -36 6 -88 -6 -61 -11 -73 -41 -102 -23 -22 -37
-30 -42 -22 -4 6 -90 106 -191 222 -147 169 -186 209 -197 200 -16 -13 -29 4
191 -249 83 -95 158 -183 168 -196 25 -32 62 -31 84 3 l17 26 7 -24 c4 -13 7
-70 8 -126 1 -87 4 -106 20 -122 10 -10 21 -25 24 -32 5 -11 10 -9 23 9 14 18
26 22 75 22 69 0 79 11 79 90 0 39 4 52 18 57 46 16 52 32 52 130 l0 93 -32
20 c-30 18 -33 25 -38 82 l-5 63 -89 8 c-79 7 -90 6 -102 -10 -16 -22 4 -43
-234 237 -101 118 -188 220 -194 227 -7 7 -16 9 -25 4z m577 -563 c3 -24 0
-28 -22 -28 -22 0 -26 4 -26 31 0 26 3 30 23 27 16 -2 23 -11 25 -30z m82
-170 l0 -53 -50 3 -50 4 0 49 0 49 50 0 50 0 0 -52z m-85 -168 c0 -20 -6 -26
-27 -28 -25 -3 -28 0 -28 28 0 28 3 31 28 28 21 -2 27 -8 27 -28z"/>
<path d="M3004 4571 c-114 -133 -211 -241 -215 -241 -4 0 -12 7 -17 16 -8 14
-21 15 -98 7 l-89 -8 -6 -64 c-5 -56 -10 -66 -38 -88 -31 -24 -31 -25 -31
-114 l0 -90 35 -20 c33 -20 35 -23 35 -78 0 -31 5 -62 12 -69 7 -7 39 -12 74
-12 53 0 62 -3 67 -20 7 -28 26 -25 37 5 5 14 14 25 20 25 6 0 10 49 10 132
l0 132 38 -37 c32 -31 40 -35 53 -25 9 7 71 78 139 158 68 80 155 179 192 221
59 67 66 78 52 89 -12 11 -17 11 -28 -1 -7 -8 -93 -108 -191 -222 l-178 -208
-38 37 c-38 37 -39 40 -39 111 0 56 4 77 18 91 55 56 417 485 417 494 0 37
-45 -6 -231 -221z m-304 -321 c0 -25 -4 -30 -25 -30 -21 0 -25 5 -25 30 0 25
4 30 25 30 21 0 25 -5 25 -30z m-20 -170 l0 -50 -54 0 -54 0 -4 50 -3 50 58 0
57 0 0 -50z m24 -162 c7 -27 -5 -41 -30 -36 -12 2 -20 13 -22 31 -3 23 0 27
21 27 17 0 26 -7 31 -22z"/>
<path d="M7353 4679 c-9 -11 5 -34 72 -111 70 -82 85 -95 95 -83 13 16 -2 38
-107 154 -40 44 -50 51 -60 40z"/>
<path d="M2785 4619 c-27 -33 -62 -75 -77 -94 -24 -27 -26 -34 -14 -44 12 -10
29 5 93 79 43 50 78 96 78 103 0 30 -34 11 -80 -44z"/>
<path d="M3111 3671 c-10 -7 4 -30 65 -100 68 -79 80 -89 92 -77 13 13 5 26
-59 99 -41 47 -76 86 -79 86 -3 0 -11 -3 -19 -8z"/>
<path d="M7008 3597 c-74 -91 -79 -101 -56 -105 18 -3 160 156 155 173 -9 27
-38 7 -99 -68z"/>
<path d="M7317 3587 c-161 -248 -448 -533 -722 -717 -330 -221 -723 -375
-1110 -435 -145 -23 -480 -31 -639 -16 -579 55 -1156 322 -1584 736 -156 151
-298 317 -404 475 -13 20 -19 22 -29 13 -15 -15 15 -63 147 -232 169 -218 403
-432 639 -587 362 -236 731 -374 1170 -436 130 -19 511 -16 658 5 595 83 1142
352 1561 765 187 185 406 463 384 489 -6 7 -13 13 -17 13 -3 0 -27 -33 -54
-73z"/>
<path d="M3766 3025 c-4 -11 11 -26 48 -50 86 -55 297 -157 312 -151 22 8 17
26 -11 36 -53 20 -228 111 -277 145 -60 40 -64 41 -72 20z"/>
<path d="M6350 2993 c-41 -25 -121 -67 -177 -95 -72 -36 -100 -54 -96 -64 7
-18 25 -13 118 33 114 56 245 136 245 150 0 24 -17 20 -90 -24z"/>
<path d="M5315 2638 c-38 -5 -172 -8 -297 -5 -180 4 -228 2 -228 -8 0 -18 38
-23 202 -31 128 -6 397 8 419 22 11 7 -1 34 -15 33 -6 -1 -42 -6 -81 -11z"/>
</g>
</svg>
